<?xml version="1.0" encoding="iso-8859-1"?>
<!-- Generator: Adobe Illustrator 19.0.0, SVG Export Plug-In . SVG Version: 6.00 Build 0)  -->
<svg version="1.1" id="Capa_1" xmlns="http://www.w3.org/2000/svg" xmlns:xlink="http://www.w3.org/1999/xlink" x="0px" y="0px"
	 viewBox="0 0 512 512" style="enable-background:new 0 0 512 512;" xml:space="preserve">
<g>
	<g>
		<path d="M473.43,436.048L473.43,436.048l-25.191-63.577c28.931-13.611,47.523-36.257,47.523-62.375
			c0-42.59-49.426-75.952-112.523-75.952c-31.07,0-58.82,8.093-78.991,21.391c-7.792-23.162-28.533-40.423-53.585-43.113
			c2.732-9.007,4.084-19.322,4.084-31.088c0-23.204-5.236-40.789-16.008-53.76c-13.059-15.725-33.719-23.703-61.406-23.715
			L142.59,45.953H0v30h125.603l20.15,33.583c-16.366,5.473-34.352,14.885-53.796,28.176c-23.539,16.091-40.563,32.021-41.276,32.691
			l-11.631,10.93l11.631,10.93c0.713,0.67,17.737,16.601,41.276,32.691c32.863,22.464,61.566,33.854,85.313,33.854
			c1.735,0,3.443-0.031,5.124-0.094c-1.518,5.444-2.346,11.173-2.346,17.094c0,10.061,2.351,19.581,6.519,28.052l-11.583,28.956
			l-48.762-24.381L75.179,436.047H36.572v30h58.917l46.479-116.198l48.762,24.381l18.067-45.17
			c10.057,6.635,22.088,10.511,35.012,10.511c11.336,0,21.981-2.987,31.215-8.195l53.868,134.671h56.632v-30h-36.321l-24.264-60.66
			c16.906,6.787,36.808,10.66,58.299,10.66c12.85,0,25.132-1.384,36.546-3.948l33.262,83.948H512v-30H473.43z M177.27,228.808
			c-29.433,0-70.222-28.323-93.515-47.484c23.266-19.163,64.008-47.468,93.515-47.468c34.165,0,47.476,13.311,47.476,47.476
			C224.746,215.497,211.435,228.808,177.27,228.808z M243.81,309.57c-18.617,0-33.762-15.145-33.762-33.762
			c0-18.616,15.146-33.762,33.762-33.762c18.616,0,33.762,15.146,33.762,33.762C277.572,294.425,262.427,309.57,243.81,309.57z
			 M318.417,337.916c-7.874-5.658-17.702-15.24-17.702-27.822c0-14.733,13.479-25.358,21.514-30.379
			c13.646-8.529,31.336-13.788,50.615-15.184L318.417,337.916z M383.238,356.047c-13.13,0-25.747-1.762-37.137-5.099l39.981-53.908
			l22.475,56.723C400.485,355.268,391.975,356.047,383.238,356.047z M437.13,344.432L406.053,266
			c14.415,2.394,27.54,7.055,38.195,13.714c8.034,5.021,21.514,15.646,21.514,30.379c0,14.734-13.479,25.358-21.514,30.38
			C441.986,341.886,439.603,343.2,437.13,344.432z"/>
	</g>
</g>
<g>
	<g>
		<rect x="149.33" y="161.999" width="30" height="30"/>
	</g>
</g>
<g>
</g>
<g>
</g>
<g>
</g>
<g>
</g>
<g>
</g>
<g>
</g>
<g>
</g>
<g>
</g>
<g>
</g>
<g>
</g>
<g>
</g>
<g>
</g>
<g>
</g>
<g>
</g>
<g>
</g>
</svg>
